<?xml version="1.0" standalone="no"?>
<!DOCTYPE svg PUBLIC "-//W3C//DTD SVG 20010904//EN"
 "http://www.w3.org/TR/2001/REC-SVG-20010904/DTD/svg10.dtd">
<svg version="1.0" xmlns="http://www.w3.org/2000/svg"
 width="644.000000pt" height="644.000000pt" viewBox="0 0 644.000000 644.000000"
 preserveAspectRatio="xMidYMid meet">
<metadata>
Created by potrace 1.11, written by Peter Selinger 2001-2013
</metadata>
<g transform="translate(0.000000,644.000000) scale(0.100000,-0.100000)"
fill="#000000" stroke="none">
<path d="M2960 6301 c0 -3 -17 -7 -38 -7 -69 -2 -132 -9 -132 -14 0 -3 -15 -5
-33 -6 -29 -1 -59 -5 -122 -18 -30 -6 -109 -20 -117 -20 -3 -1 -9 -4 -13 -8
-4 -4 -13 -4 -21 -1 -8 3 -14 0 -14 -7 0 -7 -8 -9 -19 -5 -11 3 -22 1 -26 -5
-3 -6 -11 -8 -16 -4 -5 3 -15 1 -22 -4 -7 -6 -28 -13 -47 -16 -61 -11 -64 -13
-68 -24 -2 -6 -9 -9 -17 -6 -7 3 -23 0 -35 -6 -12 -6 -29 -13 -38 -15 -32 -7
-117 -40 -123 -48 -3 -5 -9 -8 -13 -8 -9 1 -35 -9 -93 -35 -29 -12 -53 -20
-53 -16 0 4 -4 2 -8 -4 -4 -6 -38 -26 -77 -45 -38 -19 -73 -38 -77 -44 -4 -5
-8 -6 -8 -1 0 5 -7 3 -15 -4 -17 -14 -62 -40 -112 -66 -18 -9 -33 -20 -33 -25
0 -5 -5 -9 -10 -9 -9 0 -97 -54 -135 -82 -5 -5 -43 -33 -82 -63 -40 -30 -73
-53 -73 -51 0 2 -15 -10 -33 -27 -63 -60 -122 -112 -147 -130 -13 -9 -20 -17
-15 -17 5 0 -5 -11 -23 -23 -17 -13 -29 -26 -26 -30 3 -3 -4 -8 -15 -12 -12
-3 -21 -10 -21 -13 0 -4 -21 -30 -48 -57 -41 -43 -123 -138 -186 -215 -10 -13
-27 -38 -38 -57 -11 -18 -24 -33 -29 -33 -5 0 -9 -6 -9 -14 0 -8 -3 -16 -8
-18 -4 -1 -23 -28 -42 -58 -19 -30 -41 -62 -48 -70 -6 -8 -12 -19 -13 -25 0
-5 -11 -23 -23 -40 -12 -16 -39 -64 -61 -105 -21 -41 -42 -76 -46 -78 -5 -2
-9 -10 -9 -18 0 -7 -9 -29 -19 -48 -11 -19 -17 -37 -14 -40 4 -3 1 -6 -5 -6
-7 0 -12 -9 -12 -20 0 -11 -5 -20 -10 -20 -6 0 -9 -3 -8 -7 1 -7 -8 -35 -29
-83 -3 -8 -7 -17 -7 -20 -1 -3 -4 -9 -7 -15 -8 -13 -39 -108 -39 -118 0 -4 -7
-21 -15 -37 -9 -17 -13 -30 -9 -30 4 0 1 -6 -5 -14 -6 -8 -11 -18 -10 -22 1
-5 -1 -16 -4 -24 -3 -8 -11 -35 -18 -60 -7 -25 -14 -49 -15 -55 -3 -12 -12
-49 -18 -83 -3 -13 -7 -31 -10 -40 -3 -9 -7 -33 -10 -52 -3 -19 -8 -48 -12
-65 -3 -16 -7 -46 -9 -65 -2 -19 -5 -35 -5 -35 -4 0 -12 -92 -14 -142 0 -28
-4 -49 -7 -47 -3 2 -7 -95 -7 -216 0 -137 3 -220 9 -220 6 0 6 -7 0 -19 -6
-10 -8 -20 -6 -23 3 -2 7 -29 11 -59 5 -51 7 -67 20 -164 3 -22 7 -49 8 -60 1
-12 6 -26 10 -33 10 -16 -3 -15 -34 3 -34 19 -42 18 -30 -2 6 -10 65 -164 131
-343 66 -179 133 -359 149 -400 16 -41 118 -311 225 -600 134 -357 203 -530
217 -541 18 -14 109 -48 146 -55 8 -1 21 -6 30 -10 17 -7 71 -16 105 -17 9 -1
17 -4 17 -7 0 -4 6 -7 13 -7 6 0 46 -3 87 -7 167 -15 295 -18 615 -14 143 1
254 -5 248 -16 -4 -7 -1 -6 9 1 8 7 17 11 19 9 2 -2 36 -7 74 -10 96 -10 113
-12 165 -26 48 -12 74 -17 103 -19 10 0 16 -4 14 -8 -3 -5 10 -9 28 -10 19 -1
44 -7 57 -14 13 -7 31 -14 41 -16 16 -3 168 -78 212 -106 27 -17 127 -89 141
-102 7 -5 35 -30 64 -55 29 -24 86 -83 126 -131 41 -47 80 -86 88 -86 8 0 13
4 10 9 -3 4 0 8 5 8 6 0 11 6 11 13 0 7 18 30 40 50 23 20 38 37 34 37 -8 0
113 117 160 155 21 17 47 38 58 48 10 10 28 19 38 20 10 1 16 5 14 9 -3 5 3
11 13 15 10 3 29 15 42 25 13 10 27 16 31 13 4 -3 11 2 14 11 3 8 10 13 15 9
5 -3 13 -1 16 5 4 6 16 8 28 5 16 -5 18 -4 8 3 -9 7 -10 12 -2 16 6 4 11 4 11
0 0 -3 11 1 25 10 14 9 25 14 25 10 0 -4 7 -1 15 6 8 6 20 8 26 4 8 -5 9 -3 4
6 -6 10 -4 12 8 7 10 -4 17 -2 17 4 0 6 7 9 15 6 8 -4 17 -1 21 4 3 6 15 9 25
6 11 -3 19 -1 19 4 0 5 7 9 15 9 8 0 15 5 15 11 0 5 4 8 9 4 5 -3 31 -1 58 5
53 12 108 20 165 24 21 1 41 6 45 9 3 4 12 2 20 -4 8 -7 13 -8 13 -1 0 13 163
16 527 12 83 -1 156 1 162 5 6 3 11 0 11 -7 0 -8 3 -9 8 -2 4 5 37 10 73 11
37 0 72 4 79 8 9 6 11 4 5 -6 -7 -11 -6 -12 6 -3 8 6 32 12 54 13 72 6 90 8
107 16 9 4 22 4 28 0 5 -3 10 -1 10 5 0 6 10 10 23 9 12 -1 30 1 39 5 9 4 22
4 29 0 7 -4 9 -3 6 2 -3 6 18 18 46 28 95 32 105 39 111 69 3 15 9 26 14 24 4
-3 8 9 9 26 0 17 7 35 15 41 8 6 13 17 10 24 -2 7 0 18 5 25 5 7 22 51 38 99
16 48 32 85 35 83 4 -2 7 1 8 8 2 29 13 62 21 65 6 2 8 9 5 17 -3 7 0 16 5 20
6 3 9 11 6 16 -4 5 -1 9 5 9 6 0 9 4 6 9 -8 12 4 42 14 36 5 -3 6 4 3 14 -3
10 2 30 11 42 8 13 15 27 15 32 0 16 25 77 33 77 4 0 5 7 2 15 -4 8 -1 15 5
15 6 0 10 3 9 8 -4 14 14 72 21 68 4 -3 7 3 8 12 3 36 10 56 21 60 7 2 10 7 7
11 -7 12 15 81 26 81 6 0 7 5 4 10 -3 5 -1 10 5 10 6 0 8 4 5 10 -3 5 -3 16 2
23 4 6 9 20 10 30 2 10 9 28 15 40 7 12 11 25 10 29 -1 5 3 8 9 8 5 0 8 4 5 9
-8 13 4 42 15 35 5 -3 6 2 3 10 -3 8 0 25 7 38 15 26 14 22 24 65 4 19 12 30
18 26 5 -3 7 -1 4 4 -9 14 12 75 29 89 8 6 11 14 8 17 -4 3 -3 14 1 24 10 21
12 29 14 44 0 5 5 8 10 5 5 -4 7 2 4 12 -2 9 3 31 11 47 9 17 16 36 16 43 0 6
4 12 10 12 5 0 9 3 9 8 -1 4 -1 9 1 12 1 3 4 16 6 30 2 13 10 28 17 32 6 4 9
8 5 8 -4 0 2 24 13 52 12 29 23 62 25 72 2 11 7 22 11 25 10 7 15 51 7 51 -3
0 -18 -8 -32 -18 -49 -34 -51 -34 -45 -5 3 16 7 37 8 48 2 11 4 20 5 20 1 0 3
18 5 40 2 22 6 54 10 70 23 123 28 725 5 725 -3 0 -6 17 -6 38 -1 20 -4 55 -7
77 -15 95 -17 111 -22 133 -3 12 -7 32 -10 45 -5 22 -9 43 -20 101 -4 16 -8
33 -11 38 -3 5 -8 21 -10 36 -6 34 -23 90 -38 121 -6 13 -11 29 -11 35 -2 19
-18 69 -31 95 -8 14 -14 31 -14 36 0 19 -106 263 -119 275 -3 3 -8 14 -9 25
-2 11 -7 22 -11 25 -13 9 -51 81 -51 96 0 8 -4 14 -10 14 -5 0 -10 7 -10 15 0
8 -4 15 -9 15 -5 0 -11 8 -14 18 -9 28 -50 96 -69 113 -10 9 -15 19 -11 23 3
3 1 6 -5 6 -7 0 -12 7 -12 15 0 9 -7 18 -15 21 -8 4 -15 12 -15 19 0 8 -6 20
-12 27 -7 7 -33 40 -57 73 -25 33 -47 62 -50 65 -3 3 -24 27 -46 55 -22 27
-64 74 -92 104 -29 30 -53 55 -53 57 0 2 -98 97 -166 160 -48 44 -122 105
-131 107 -4 1 -19 13 -34 27 -14 14 -36 32 -49 40 -12 8 -28 21 -36 28 -7 6
-15 12 -17 12 -3 0 -41 25 -85 55 -44 30 -85 55 -90 55 -6 0 -12 3 -14 8 -4 8
-48 35 -98 60 -19 9 -37 19 -40 22 -13 13 -90 50 -90 44 0 -4 -8 -1 -17 7 -22
18 -95 53 -105 51 -5 -1 -8 3 -8 8 0 5 -3 9 -7 9 -5 -1 -11 0 -15 1 -5 1 -11
3 -15 4 -5 1 -19 8 -33 16 -14 7 -27 13 -30 13 -3 0 -14 3 -25 7 -95 37 -136
52 -151 55 -11 2 -20 4 -21 5 -2 2 -6 3 -10 4 -5 2 -28 8 -53 16 -68 20 -72
21 -107 27 -18 3 -33 8 -33 12 0 4 -16 8 -36 9 -20 2 -44 7 -53 11 -9 5 -36
11 -61 14 -25 3 -57 8 -71 12 -14 3 -41 8 -60 10 -19 2 -34 4 -34 5 0 1 -13 3
-30 5 -16 2 -52 7 -80 10 -67 9 -565 15 -565 6z"/>
</g>
</svg>
